# xmcd CD database file generated by OrangeCD 5.2
#
# Track frame offsets:
#	150
#	15299
#	27320
#	42273
#	56175
#	70080
#	82630
#	96179
#	109498
#	123253
#	136911
#	152521
#	166090
#	178521
#	189723
#	202095
#	214299
#	228568
#	242967
#	256033
#
# Disc length: 3576 seconds
#
# Revision: 0
# Processed by: cddbd v1.5.1PL0 Copyright (c) Steve Scherf et al.
# Submitted via: OrangeCD 5.2
#
DISCID=0d0df614
DTITLE=Lena Horne - Right To Sing The Blues
DYEAR=1900
DGENRE=Blues
TTITLE0=Stormy Weather
TTITLE1=What Is This Thing Called Love
TTITLE2=The Man I Love
TTITLE3=Don't Take Your Love From Me
TTITLE4=That's What Love Did To Me
TTITLE5=Aunt Hagers' Blues
TTITLE6=St Louis Blues
TTITLE7=Beal Street Blues
TTITLE8=Love Me A Little
TTITLE9=Haunted Town
TTITLE10=Out Of Nowhere
TTITLE11=The Captain And His Men
TTITLE12=Carless Love
TTITLE13=Ill Wind
TTITLE14=Where Or When
TTITLE15=I Take To You
TTITLE16=I Gotta Right Ot Sing The Blues
TTITLE17=You're My Thrill
TTITLE18=Mad About The Boy
TTITLE19=Good-For-Nothin' Joe
EXTD=
EXTT0=
EXTT1=
EXTT2=
EXTT3=
EXTT4=
EXTT5=
EXTT6=
EXTT7=
EXTT8=
EXTT9=
EXTT10=
EXTT11=
EXTT12=
EXTT13=
EXTT14=
EXTT15=
EXTT16=
EXTT17=
EXTT18=
EXTT19=
PLAYORDER=
